<mxfile host="app.diagrams.net" agent="Mozilla/5.0 (X11; Linux x86_64) AppleWebKit/537.36 (KHTML, like Gecko) Chrome/133.0.0.0 Safari/537.36" version="26.2.9">
  <diagram id="WI9T0HZ2pTsCkuznbFz-" name="Page-1">
    <mxGraphModel dx="1454" dy="1515" grid="1" gridSize="10" guides="1" tooltips="1" connect="1" arrows="1" fold="1" page="1" pageScale="1" pageWidth="1169" pageHeight="827" math="0" shadow="0">
      <root>
        <mxCell id="0" />
        <mxCell id="1" parent="0" />
        <mxCell id="1pyBuiSv32PL78OtD2eL-4" value="Wishlist v3&amp;nbsp;&lt;span style=&quot;background-color: transparent; color: light-dark(rgb(0, 0, 0), rgb(255, 255, 255));&quot;&gt;API client&lt;/span&gt;" style="text;html=1;align=center;verticalAlign=middle;resizable=0;points=[];autosize=1;strokeColor=none;fillColor=none;" parent="1" vertex="1">
          <mxGeometry x="10.629999999999995" y="-721.5" width="130" height="30" as="geometry" />
        </mxCell>
        <mxCell id="1pyBuiSv32PL78OtD2eL-8" value="SAP CC - Proxy pass" style="text;html=1;align=center;verticalAlign=middle;resizable=0;points=[];autosize=1;strokeColor=none;fillColor=none;" parent="1" vertex="1">
          <mxGeometry x="170.01" y="-721.5" width="140" height="30" as="geometry" />
        </mxCell>
        <mxCell id="1pyBuiSv32PL78OtD2eL-1" value="" style="points=[[0.03,0.03,0],[0.5,0,0],[0.97,0.03,0],[1,0.4,0],[0.97,0.745,0],[0.5,1,0],[0.03,0.745,0],[0,0.4,0]];verticalLabelPosition=bottom;sketch=0;html=1;verticalAlign=top;aspect=fixed;align=center;pointerEvents=1;shape=mxgraph.cisco19.workstation;fillColor=#005073;strokeColor=none;" parent="1" vertex="1">
          <mxGeometry x="40" y="-785.5" width="71.25" height="57" as="geometry" />
        </mxCell>
        <mxCell id="1pyBuiSv32PL78OtD2eL-12" value="" style="editableCssRules=.*;html=1;shape=image;verticalLabelPosition=bottom;labelBackgroundColor=#ffffff;verticalAlign=top;aspect=fixed;imageAspect=0;image=data:image/svg+xml,PHN2ZyB4bWxucz0iaHR0cDovL3d3dy53My5vcmcvMjAwMC9zdmciIHhtbG5zOnY9Imh0dHBzOi8vdmVjdGEuaW8vbmFubyIgd2lkdGg9IjE2MCIgaGVpZ2h0PSIyNDAiIHZpZXdCb3g9IjAgMCAxNjAgMjQwIj4mI3hhOwk8c3R5bGUgdHlwZT0idGV4dC9jc3MiPiYjeGE7CS5zdDB7ZmlsbDojNDY2YmIwO30mI3hhOwk8L3N0eWxlPiYjeGE7CTxwYXRoIGNsYXNzPSJzdDAiIGQ9Ik02MCAyNDBMMCAyMTBoMTYwem0wLTE2MEwwIDIwMGw2MC0xMHpNNzAgMHYxOTBsOTAgMTB6Ii8+JiN4YTs8L3N2Zz4=;fontColor=default;" parent="1" vertex="1">
          <mxGeometry x="381.01" y="-790" width="39" height="60" as="geometry" />
        </mxCell>
        <mxCell id="1pyBuiSv32PL78OtD2eL-13" value="Istio service mesh" style="text;html=1;align=center;verticalAlign=middle;resizable=0;points=[];autosize=1;strokeColor=none;fillColor=none;" parent="1" vertex="1">
          <mxGeometry x="341.51" y="-721.5" width="120" height="30" as="geometry" />
        </mxCell>
        <mxCell id="1pyBuiSv32PL78OtD2eL-26" value="" style="image;aspect=fixed;html=1;points=[];align=center;fontSize=12;image=img/lib/azure2/compute/Azure_Spring_Cloud.svg;" parent="1" vertex="1">
          <mxGeometry x="530.01" y="-788.5" width="60" height="60" as="geometry" />
        </mxCell>
        <mxCell id="1pyBuiSv32PL78OtD2eL-27" value="Shopping List Microservices" style="text;html=1;align=center;verticalAlign=middle;resizable=0;points=[];autosize=1;strokeColor=none;fillColor=none;" parent="1" vertex="1">
          <mxGeometry x="475.01" y="-728.5" width="170" height="30" as="geometry" />
        </mxCell>
        <mxCell id="1pyBuiSv32PL78OtD2eL-45" value="" style="aspect=fixed;sketch=0;html=1;dashed=0;whitespace=wrap;verticalLabelPosition=bottom;verticalAlign=top;fillColor=#2875E2;strokeColor=#ffffff;points=[[0.005,0.63,0],[0.1,0.2,0],[0.9,0.2,0],[0.5,0,0],[0.995,0.63,0],[0.72,0.99,0],[0.5,1,0],[0.28,0.99,0]];shape=mxgraph.kubernetes.icon2;kubernetesLabel=1;prIcon=api" parent="1" vertex="1">
          <mxGeometry x="215.01" y="-681.5" width="50" height="48" as="geometry" />
        </mxCell>
        <mxCell id="1pyBuiSv32PL78OtD2eL-46" value="" style="shadow=0;dashed=0;html=1;labelPosition=center;verticalLabelPosition=bottom;verticalAlign=top;align=center;outlineConnect=0;shape=mxgraph.veeam.3d.proxy;" parent="1" vertex="1">
          <mxGeometry x="217.01" y="-781.5" width="46" height="46" as="geometry" />
        </mxCell>
        <mxCell id="1pyBuiSv32PL78OtD2eL-47" value="" style="endArrow=classic;startArrow=classic;html=1;rounded=0;strokeColor=#000099;" parent="1" edge="1">
          <mxGeometry width="50" height="50" relative="1" as="geometry">
            <mxPoint x="420.01" y="-761.5" as="sourcePoint" />
            <mxPoint x="520.01" y="-761.5" as="targetPoint" />
          </mxGeometry>
        </mxCell>
        <mxCell id="1pyBuiSv32PL78OtD2eL-48" value="" style="endArrow=classic;startArrow=classic;html=1;rounded=0;strokeColor=#000099;" parent="1" edge="1">
          <mxGeometry width="50" height="50" relative="1" as="geometry">
            <mxPoint x="270.01" y="-761.5" as="sourcePoint" />
            <mxPoint x="380.01" y="-761.5" as="targetPoint" />
          </mxGeometry>
        </mxCell>
        <mxCell id="1pyBuiSv32PL78OtD2eL-49" value="" style="endArrow=classic;startArrow=classic;html=1;rounded=0;strokeColor=#000099;" parent="1" edge="1">
          <mxGeometry width="50" height="50" relative="1" as="geometry">
            <mxPoint x="120.00999999999999" y="-761.5" as="sourcePoint" />
            <mxPoint x="210.01" y="-761.5" as="targetPoint" />
          </mxGeometry>
        </mxCell>
        <mxCell id="1pyBuiSv32PL78OtD2eL-51" value="SAP CC&lt;span style=&quot;background-color: transparent; color: light-dark(rgb(0, 0, 0), rgb(255, 255, 255));&quot;&gt;&amp;nbsp;- API&lt;/span&gt;" style="text;html=1;align=center;verticalAlign=middle;resizable=0;points=[];autosize=1;strokeColor=none;fillColor=none;" parent="1" vertex="1">
          <mxGeometry x="190.01" y="-623.5" width="100" height="30" as="geometry" />
        </mxCell>
        <mxCell id="1pyBuiSv32PL78OtD2eL-53" value="Send discounted price notification email&amp;nbsp;&lt;div&gt;(new API)&lt;/div&gt;" style="text;html=1;align=center;verticalAlign=middle;resizable=0;points=[];autosize=1;strokeColor=none;fillColor=none;" parent="1" vertex="1">
          <mxGeometry x="310.01" y="-650" width="240" height="40" as="geometry" />
        </mxCell>
        <mxCell id="1pyBuiSv32PL78OtD2eL-54" value="" style="endArrow=classic;html=1;rounded=0;exitX=0.493;exitY=1.011;exitDx=0;exitDy=0;exitPerimeter=0;strokeColor=#FF8000;entryX=0.995;entryY=0.63;entryDx=0;entryDy=0;entryPerimeter=0;" parent="1" edge="1" target="1pyBuiSv32PL78OtD2eL-45">
          <mxGeometry width="50" height="50" relative="1" as="geometry">
            <mxPoint x="559.03" y="-710" as="sourcePoint" />
            <mxPoint x="270.01" y="-653.33" as="targetPoint" />
            <Array as="points">
              <mxPoint x="560" y="-650" />
            </Array>
          </mxGeometry>
        </mxCell>
        <mxCell id="1pyBuiSv32PL78OtD2eL-56" value="" style="endArrow=classic;html=1;rounded=0;strokeColor=#FF8000;" parent="1" edge="1">
          <mxGeometry width="50" height="50" relative="1" as="geometry">
            <mxPoint x="600" y="-760" as="sourcePoint" />
            <mxPoint x="680" y="-680" as="targetPoint" />
            <Array as="points">
              <mxPoint x="680" y="-760" />
            </Array>
          </mxGeometry>
        </mxCell>
        <mxCell id="1pyBuiSv32PL78OtD2eL-57" value="Consume new price event" style="text;html=1;align=center;verticalAlign=middle;resizable=0;points=[];autosize=1;strokeColor=none;fillColor=none;" parent="1" vertex="1">
          <mxGeometry x="600" y="-781.5" width="160" height="30" as="geometry" />
        </mxCell>
        <mxCell id="vOZeo21h9JTCaLZLG0KJ-1" value="" style="verticalLabelPosition=bottom;html=1;verticalAlign=top;align=center;strokeColor=none;fillColor=#00BEF2;shape=mxgraph.azure.storage_queue;" vertex="1" parent="1">
          <mxGeometry x="655" y="-680" width="50" height="45" as="geometry" />
        </mxCell>
      </root>
    </mxGraphModel>
  </diagram>
</mxfile>
